<svg width="20" height="21" viewBox="0 0 20 21" fill="none" xmlns="http://www.w3.org/2000/svg">
<path d="M10 0.722839C4.48 0.722839 0 5.20284 0 10.7228C0 16.2428 4.48 20.7228 10 20.7228C15.52 20.7228 20 16.2428 20 10.7228C20 5.20284 15.52 0.722839 10 0.722839ZM10 18.7228C5.59 18.7228 2 15.1328 2 10.7228C2 6.31284 5.59 2.72284 10 2.72284C14.41 2.72284 18 6.31284 18 10.7228C18 15.1328 14.41 18.7228 10 18.7228ZM13.88 7.01284L8 12.8928L6.12 11.0128C5.73 10.6228 5.1 10.6228 4.71 11.0128C4.32 11.4028 4.32 12.0328 4.71 12.4228L7.3 15.0128C7.69 15.4028 8.32 15.4028 8.71 15.0128L15.3 8.42284C15.69 8.03284 15.69 7.40284 15.3 7.01284C14.91 6.62284 14.27 6.62284 13.88 7.01284Z" fill="black"/>
</svg>

